<svg xmlns="http://www.w3.org/2000/svg" xmlns:cc="http://creativecommons.org/ns#" xmlns:dc="http://purl.org/dc/elements/1.1/" xmlns:rdf="http://www.w3.org/1999/02/22-rdf-syntax-ns#" version="1.1" viewBox="0 0 32 40" x="0px" y="0px"><path d="m14.999 11c-2.9265 5.7e-4 -5.538 1.6478-6.9352 4.1719-0.35395-0.06523-0.70143-0.1711-1.0624-0.17188h-0.00195c-3.3017 0-5.9997 2.6981-5.9997 6s2.698 6 5.9997 6h16.999c2.7495 0 4.9998-2.2504 4.9998-5s-2.2503-5-4.9998-5h-2e-3c-0.46088 0.0011-0.96093 0.04674-1.3769 0.20312-0.78317-3.6198-3.8153-6.2024-7.6207-6.2031z" color="#000000" color-rendering="auto" dominant-baseline="auto" image-rendering="auto" shape-rendering="auto" solid-color="#000000" style="font-feature-settings:normal;font-variant-alternates:normal;font-variant-caps:normal;font-variant-ligatures:normal;font-variant-numeric:normal;font-variant-position:normal;isolation:auto;mix-blend-mode:normal;paint-order:fill markers stroke;shape-padding:0;text-decoration-color:#000000;text-decoration-line:none;text-decoration-style:solid;text-indent:0;text-orientation:mixed;text-transform:none;white-space:normal;"/><path d="m24.077 5c-2.9489 0-5.4838 1.8034-6.5446 4.3496 2.8717 0.79957 5.1601 2.922 6.3376 5.6699 0.03569-3.5e-4 0.08811-0.01945 0.12304-0.01953h0.0059c1.9213 0 3.6712 0.79146 4.9412 2.0625 0.98419-0.92425 1.714-2.1225 2.0331-3.502 0.19907-0.86257-0.74807-1.5371-1.5116-1.0762-0.55439 0.33565-1.1936 0.51444-1.8437 0.51562-1.9666 0-3.5389-1.5552-3.5389-3.5 0.0018-1.0428 0.47192-2.0293 1.2851-2.6934 0.69027-0.56345 0.35474-1.6706-0.53513-1.7656-0.24875-0.02675-0.49788-0.040441-0.74805-0.041017z" style="font-feature-settings:normal;font-variant-alternates:normal;font-variant-caps:normal;font-variant-ligatures:normal;font-variant-numeric:normal;font-variant-position:normal;isolation:auto;mix-blend-mode:normal;paint-order:normal;shape-padding:0;text-decoration-color:#000000;text-decoration-line:none;text-decoration-style:solid;text-indent:0;text-orientation:mixed;text-transform:none;white-space:normal;"/><text x="0" y="47" fill="#000000" font-size="5px" font-weight="bold" font-family="'Helvetica Neue', Helvetica, Arial-Unicode, Arial, Sans-serif">Created by RomStu</text><text x="0" y="52" fill="#000000" font-size="5px" font-weight="bold" font-family="'Helvetica Neue', Helvetica, Arial-Unicode, Arial, Sans-serif">from the Noun Project</text></svg>