<svg xmlns="http://www.w3.org/2000/svg" data-name="Layer 1" viewBox="0 0 48 60" x="0px" y="0px"><path d="M22.5023,40.974v1.99693a1.4977,1.4977,0,0,0,2.9954,0V40.974a1.4977,1.4977,0,1,0-2.9954,0ZM34.78247,39.68,33.784,37.95058a1.49768,1.49768,0,0,0-2.594,1.4977l.99846,1.72937A1.49768,1.49768,0,1,0,34.78247,39.68ZM14.216,37.95058,13.21753,39.68a1.49768,1.49768,0,1,0,2.594,1.4977L16.81,39.44828a1.49768,1.49768,0,0,0-2.594-1.4977Zm26.96165-5.76216L39.44828,31.19a1.49768,1.49768,0,0,0-1.4977,2.594l1.72937.99847a1.49768,1.49768,0,1,0,1.4977-2.59405ZM8.55172,31.19l-1.72937.99846a1.49768,1.49768,0,1,0,1.4977,2.59405l1.72937-.99847a1.49768,1.49768,0,0,0-1.4977-2.594ZM24,13.51609A10.48391,10.48391,0,1,0,34.48391,24,10.489,10.489,0,0,0,24,13.51609ZM42.97089,22.5023H40.974a1.4977,1.4977,0,1,0,0,2.9954h1.99693a1.4977,1.4977,0,1,0,0-2.9954Zm-35.94485,0H5.02911a1.4977,1.4977,0,0,0,0,2.9954H7.026a1.4977,1.4977,0,1,0,0-2.9954ZM39.68,13.21753l-1.72937.99847a1.49768,1.49768,0,0,0,1.4977,2.594l1.72937-.99846a1.49768,1.49768,0,1,0-1.4977-2.594ZM10.04942,14.216l-1.72937-.99847a1.49768,1.49768,0,1,0-1.4977,2.594L8.55172,16.81a1.49768,1.49768,0,0,0,1.4977-2.594Zm22.139-7.39365L31.19,8.55172a1.49768,1.49768,0,0,0,2.594,1.4977l.99847-1.72937a1.49768,1.49768,0,1,0-2.59405-1.4977ZM16.81,8.55172l-.99846-1.72937a1.49768,1.49768,0,1,0-2.594,1.4977l.99847,1.72937a1.49768,1.49768,0,0,0,2.594-1.4977ZM22.5023,5.02911V7.026a1.4977,1.4977,0,1,0,2.9954,0V5.02911a1.4977,1.4977,0,1,0-2.9954,0Z" fill-rule="evenodd"/><text x="0" y="63" fill="#000000" font-size="5px" font-weight="bold" font-family="'Helvetica Neue', Helvetica, Arial-Unicode, Arial, Sans-serif">Created by karacis studio</text><text x="0" y="68" fill="#000000" font-size="5px" font-weight="bold" font-family="'Helvetica Neue', Helvetica, Arial-Unicode, Arial, Sans-serif">from the Noun Project</text></svg>