<?xml version="1.0" encoding="UTF-8"?>
<svg width="800px" height="800px" version="1.1" viewBox="0 0 32 32" xmlns="http://www.w3.org/2000/svg">
<title>sunset 2</title>
<desc>Created with Sketch Beta.</desc>
<g fill="none" fill-rule="evenodd" sketchType="MSPage">
<g transform="translate(-362 -829)" fill="#000" sketchType="MSLayerGroup">
<path d="m390 855h-24c-0.553 0-1 0.447-1 1s0.447 1 1 1h24c0.553 0 1-0.447 1-1s-0.447-1-1-1zm3-4h-30c-0.553 0-1 0.447-1 1s0.447 1 1 1h30c0.553 0 1-0.447 1-1s-0.447-1-1-1zm0.476-2c0.33-1.28 0.524-2.616 0.524-4 0-8.836-7.163-16-16-16s-16 7.164-16 16c0 1.384 0.194 2.72 0.524 4h30.952zm-10.476 10h-10c-0.553 0-1 0.447-1 1s0.447 1 1 1h10c0.553 0 1-0.447 1-1s-0.447-1-1-1z" sketchType="MSShapeGroup"></path>
</g>
</g>
</svg>
